<?xml version="1.0" encoding="utf-8"?>
<!-- Svg Vector Icons : http://www.onlinewebfonts.com/icon -->
<!DOCTYPE svg PUBLIC "-//W3C//DTD SVG 1.1//EN" "http://www.w3.org/Graphics/SVG/1.1/DTD/svg11.dtd">
<svg version="1.1" xmlns="http://www.w3.org/2000/svg" xmlns:xlink="http://www.w3.org/1999/xlink" x="0px" y="0px" viewBox="0 0 256 256" enable-background="new 0 0 256 256" xml:space="preserve">
<metadata> Svg Vector Icons : http://www.onlinewebfonts.com/icon </metadata>
<g><g><g><path fill="#000000" d="M62,11c-0.9,1-1,3.4-1,22.9c0,20,0.1,21.8,1,22.7c0.5,0.5,13.4,6.2,28.6,12.8l27.7,11.9l-1.7,1.8c-2.3,2.5-3.6,5.2-3.9,8.6c-0.4,3.8,0.5,7,3,10.7c1.1,1.7,1.9,3.3,1.7,3.8c-0.2,0.6-16.8,31-17.2,31.5c-0.1,0.1-11.7,2.3-25.8,5c-17.4,3.3-26.1,5.2-26.8,5.8c-1.7,1.5-1.3,3.4,1.7,6.6c2.5,2.8,26.4,28.2,31.1,33.3l2.2,2.3l-3,25.9c-3.3,28.6-3.3,29.3,0.5,29.4c0.6,0,11.6-4.9,24.5-10.9l23.4-10.9l23.4,10.9c12.9,6,23.9,10.9,24.5,10.9c0.6,0,1.4-0.2,1.7-0.5c1.8-1.2,1.8-2.7-1.3-28.4l-3-25.8l2.1-2.3c1.1-1.3,9.2-10,17.7-19.3c8.6-9.3,15.8-17.6,15.9-18.4c0.2-0.9,0-1.8-0.7-2.6c-0.9-1.1-4.1-1.8-26.5-5.8c-20.9-3.7-25.6-4.7-26.1-5.6c-0.3-0.6-4.5-8-9.3-16.5l-8.7-15.5l1.4-1.7c5.2-6.3,5.4-14.8,0.4-20.4l-1.9-2.1l27.6-11.9c15.9-6.8,28.1-12.4,28.7-13c0.9-1.1,1-3,1-22.5c0-18.3-0.1-21.5-0.9-22.6l-0.9-1.3h-65.2C65.7,10,62.9,10.1,62,11z M86.3,38.4v20.8l-4.7-2c-2.6-1.1-6.6-2.8-8.9-3.8l-4.2-1.8V34.6V17.4h8.9h8.9L86.3,38.4L86.3,38.4z M112,43.9c0,24.9-0.1,26.4-1,26.1c-0.6-0.2-4.7-2-9.2-3.9l-8.2-3.6V40V17.4h9.2h9.2L112,43.9L112,43.9z M137.2,45.5v28l-4.3,1.8c-2.3,1-4.5,1.8-4.9,1.8c-0.3,0-2.5-0.8-4.9-1.8l-4.3-1.8v-28v-28h9.2h9.2V45.5z M162.5,40v22.5l-8.1,3.6c-4.5,1.9-8.6,3.7-9.2,3.9c-1,0.3-1-1.1-1-26.1V17.4h9.2h9.2V40L162.5,40z M187.7,34.6v17.1l-4.1,1.8c-2.3,1-6.3,2.6-8.9,3.8l-4.8,2V38.4V17.5h8.9h8.9L187.7,34.6L187.7,34.6z M131.9,86c2.5,1.2,4.2,4.1,4.2,7c0,2.3-1,5.3-1.7,5.3c-0.2,0-1-1.1-1.7-2.5c-1.9-3.6-2.9-4.4-4.6-4.4c-1.9,0-3.4,1.4-4.8,4.6c-1.2,2.7-1.8,2.9-2.6,0.8C117.8,89.3,124.8,82.6,131.9,86z M139.6,122.7c6.1,10.9,11.6,20.5,12.3,21.1c1,1.1,4.1,1.8,22.9,5.1c12,2.1,22.2,4,22.8,4.2c0.8,0.3-2.1,3.7-14.8,17.5c-8.7,9.5-16,17.6-16.3,18.1c-0.3,0.6,0.5,9.6,2.2,24.1c1.5,12.7,2.7,23.2,2.6,23.3c-0.1,0.1-9.6-4.2-21.1-9.6c-11.5-5.4-21.4-9.8-22.1-9.8c-0.7,0-10.7,4.4-22.2,9.8c-11.6,5.3-21,9.7-21.1,9.6c-0.1-0.1,1.1-10.7,2.6-23.7c1.8-15.1,2.6-23.8,2.2-24.6c-0.3-0.6-7.6-8.6-16.2-17.8c-9.6-10.1-15.5-16.7-15.1-17c0.4-0.2,10.6-2.2,22.7-4.5c12.1-2.3,22.6-4.5,23.3-4.9c0.7-0.4,6.2-9.7,12.3-20.8c6.1-11.1,11.2-20.1,11.5-20.1C128.3,102.8,133.5,111.7,139.6,122.7z"/></g></g></g>
</svg>