<?xml version="1.0" encoding="utf-8"?>
<!-- Svg Vector Icons : http://www.onlinewebfonts.com/icon -->
<!DOCTYPE svg PUBLIC "-//W3C//DTD SVG 1.1//EN" "http://www.w3.org/Graphics/SVG/1.1/DTD/svg11.dtd">
<svg version="1.1" xmlns="http://www.w3.org/2000/svg" xmlns:xlink="http://www.w3.org/1999/xlink" x="0px" y="0px" viewBox="0 0 256 256" enable-background="new 0 0 256 256" xml:space="preserve">
<metadata> Svg Vector Icons : http://www.onlinewebfonts.com/icon </metadata>
<g><g><g><path fill="#000000" d="M146.8,10.6c-4.9,1.6-8.8,5.5-10.6,10.6c-0.5,1.4-1.2,4.9-1.6,7.8c-1.5,10.8-4.1,19.9-7.7,26.9c-1.7,3.2-3.1,4.9-11.6,13.6c-13.5,13.7-15.1,16.1-20.4,30.3c-5.6,15-8.7,20.6-14.2,25.9l-3,2.9l-2.4-1.6c-3.7-2.5-5.3-2.6-26-2.5l-18.6,0.1l-2.5,1.2c-3,1.5-5.7,4-7.3,7.1l-1.2,2.3v46.9V229l1,2.2c1.2,2.8,4.4,5.9,7.3,7.3l2.3,1.1h20.5h20.5l2.4-1.2c1.3-0.7,3.1-2,4-2.9l1.6-1.6l5.2,0.5c8.3,0.7,13.3,1.6,24.4,4.6c22.5,5.9,29.4,7.1,41.3,7.1c5.8,0,11-0.3,15.2-0.8c16.7-2.1,32.6-5.4,39-7.9c7.4-3,13.3-7.8,16.2-13.1c2-3.8,2.2-6.3,1-11.4c-0.5-2.3-1-4.5-1-4.8c0-0.4,1.4-2.5,3-4.8c1.7-2.3,3.8-5.7,4.7-7.6c1.6-3.2,1.7-3.7,1.7-7.6c0-3.2-0.3-5.1-1.3-8l-1.2-3.8l2.9-3.8c1.6-2.1,3.5-5.1,4.3-6.8c1.3-2.7,1.4-3.4,1.4-7.2c0-4.8-1-7.9-3.9-12.9l-1.9-3.1l2.4-4.9c2.6-5.5,3.7-9.3,3.7-12.7c0-6-4.1-14-10.5-20.3c-4.2-4.2-8.1-6-14.2-7c-7.8-1.1-20.6-1.7-35.3-1.6c-12.8,0.1-14.2,0.1-15.8-0.7c-1-0.5-1.8-1-1.8-1.2c0-0.9,3.1-6.6,8.1-14.6c2.9-4.6,5.8-9.5,6.4-10.8c3.9-7.6,4.5-20.7,1.6-32.3c-3-11.7-9.4-21.2-16.4-24.5C154.8,10,150.1,9.5,146.8,10.6z M154.2,26.8c2.4,2.6,5.3,8.4,6.5,13.3c1.2,4.8,1.7,12.5,1,16.6c-0.7,3.9-1.5,5.5-7.9,15.9c-7.5,12.1-10.1,17.9-10.1,22.9c0,5.4,6.2,11.7,13.8,14.1c2.8,0.9,4.3,1,22.9,1.1c18.7,0.1,27.4,0.6,31.7,1.7c2.2,0.6,6.7,5.4,8.5,8.9c1.7,3.4,1.4,4.6-2,11.4c-4.7,9.1-4.7,10.6,0,18.5c1.5,2.5,2.9,5.2,3,5.9c0.4,1.7-0.4,3.2-4.3,8.3c-5.4,7.1-5.8,9.1-3.1,16.9c1.1,3.3,1.7,5.5,1.5,6.2c-0.2,0.6-1.8,3.1-3.6,5.5c-5.4,7.3-5.8,8.1-5.9,12c-0.1,2.3,0.1,4.8,0.7,7.5l0.9,4.1l-2.1,1.9c-1.2,1.1-3.6,2.6-5.4,3.4c-7,3.2-31.4,7.6-46.7,8.4c-9.5,0.5-19.8-1.2-40-6.5c-12.4-3.3-19.8-4.7-26.8-5.2l-4.6-0.3v-38.1l0-38.1l1.9-1.2c3-1.8,8.1-6.5,10.6-9.5c4.8-5.8,8.3-12.6,14-27.7c2.3-6.1,4.1-9.9,5.6-12.2c1.3-1.9,6.2-7.4,11.9-13.3c10.5-10.7,12.6-13.5,15.9-21.1c3.1-7.3,5.2-15.2,6.9-26.3C150.3,23.9,150.9,23.3,154.2,26.8z M67.4,182.1V225H50.8H34.2v-42.9v-42.9h16.6h16.6V182.1z"/></g></g></g>
</svg>