<?xml version="1.0" ?><svg id="Layer_1" style="enable-background:new 0 0 60 60;" version="1.1" viewBox="0 0 60 60" xml:space="preserve" xmlns="http://www.w3.org/2000/svg" xmlns:xlink="http://www.w3.org/1999/xlink"><path d="M6.45,34.41c0.42,1.26,1.59,2.06,2.85,2.06c0.31,0,0.63-0.05,0.94-0.15l0.17-0.06l7.83,16.42c0.17,0.36,0.53,0.57,0.9,0.57  c0.1,0,0.21-0.02,0.31-0.05l3.96-1.31c0.52-0.17,0.81-0.74,0.64-1.26l-4.79-14.52c-0.17-0.52-0.74-0.81-1.26-0.64  c-0.52,0.17-0.81,0.74-0.64,1.26l4.47,13.57l-2.17,0.72l-7.34-15.4l3.15-1.04l6.13-1.06c5.66-0.98,11.57,0,16.61,2.75  c0.57,0.34,1.22,0.54,1.9,0.54c0.38,0,0.77-0.06,1.15-0.19c1.93-0.64,2.98-2.73,2.35-4.66l-1.89-5.72c0.97-0.53,1.75-1.33,2.26-2.33  c0.66-1.31,0.77-2.79,0.31-4.18c-0.46-1.39-1.43-2.52-2.74-3.18c-1-0.51-2.11-0.68-3.2-0.53l-1.89-5.72  c-0.64-1.93-2.72-2.98-4.66-2.35c-0.94,0.31-1.7,0.96-2.14,1.84c-0.04,0.08-0.06,0.17-0.1,0.25c0,0,0,0.01-0.01,0.01  c-2.42,5.22-6.58,9.51-11.72,12.09l-5.56,2.79l-5.23,1.72c-0.76,0.25-1.38,0.78-1.74,1.5c-0.36,0.71-0.42,1.53-0.17,2.29L6.45,34.41  z M40.65,18.36c0.83,0.42,1.45,1.13,1.74,2.02c0.29,0.88,0.22,1.83-0.2,2.66c-0.26,0.52-0.65,0.95-1.12,1.27L39,18  C39.57,17.98,40.13,18.09,40.65,18.36z M32.43,9.87c0.17-0.06,0.35-0.08,0.53-0.08c0.71,0,1.37,0.45,1.61,1.16l2.17,6.57  c0,0,0,0,0,0s0,0,0,0l2.8,8.5c0,0,0,0,0,0c0,0,0,0,0,0l2.17,6.57c0.29,0.88-0.19,1.84-1.08,2.13c-0.51,0.17-1.04,0.07-1.46-0.2  c0,0-0.01-0.01-0.01-0.01c0,0-0.01,0-0.01-0.01c-0.29-0.2-0.53-0.49-0.65-0.86L31.36,12c-0.12-0.35-0.11-0.73,0.01-1.07  c0-0.01,0.01-0.01,0.01-0.02c0,0,0-0.01,0-0.02c0.02-0.06,0.04-0.12,0.07-0.18C31.66,10.31,32.01,10.01,32.43,9.87z M18.75,23.95  c4.57-2.3,8.41-5.87,11.08-10.2l6.4,19.42c-4.73-1.89-9.94-2.48-14.98-1.61l-5.35,0.93l-0.5-1.51l-1.51-4.59L18.75,23.95z   M7.11,29.08c0.12-0.24,0.33-0.41,0.58-0.5l4.35-1.43l1.92,5.84l-4.35,1.43c-0.52,0.17-1.09-0.11-1.26-0.63l-1.3-3.95  C6.97,29.59,6.99,29.32,7.11,29.08z"/><path d="M45.87,19.23c0.14,0.42,0.53,0.69,0.95,0.69c0.1,0,0.21-0.02,0.31-0.05l5.82-1.92c0.52-0.17,0.81-0.74,0.64-1.26  c-0.17-0.52-0.73-0.81-1.26-0.64l-5.82,1.92C45.98,18.14,45.7,18.7,45.87,19.23z"/><path d="M44.36,15.42c0.12,0.05,0.25,0.07,0.38,0.07c0.39,0,0.77-0.24,0.93-0.62l2.75-6.75c0.21-0.51-0.04-1.1-0.55-1.3  c-0.51-0.21-1.1,0.04-1.3,0.55l-2.75,6.75C43.61,14.63,43.85,15.21,44.36,15.42z"/><path d="M46.92,23.18c-0.29,0.47-0.14,1.09,0.33,1.37l6.22,3.79c0.16,0.1,0.34,0.15,0.52,0.15c0.34,0,0.67-0.17,0.85-0.48  c0.29-0.47,0.14-1.09-0.33-1.37l-6.22-3.79C47.83,22.56,47.21,22.71,46.92,23.18z"/></svg>